<?xml version="1.0" encoding="UTF-8" standalone="no"?>
<!-- Created with Inkscape (http://www.inkscape.org/) -->

<svg
   xmlns:dc="http://purl.org/dc/elements/1.1/"
   xmlns:cc="http://creativecommons.org/ns#"
   xmlns:rdf="http://www.w3.org/1999/02/22-rdf-syntax-ns#"
   xmlns:svg="http://www.w3.org/2000/svg"
   xmlns="http://www.w3.org/2000/svg"
   xmlns:sodipodi="http://sodipodi.sourceforge.net/DTD/sodipodi-0.dtd"
   xmlns:inkscape="http://www.inkscape.org/namespaces/inkscape"
   width="1000"
   height="1000"
   id="svg3707"
   version="1.1"
   inkscape:version="0.48.4 r9939"
   sodipodi:docname="image.svg">
  <defs
     id="defs3709" />
  <sodipodi:namedview
     id="base"
     pagecolor="#ffffff"
     bordercolor="#666666"
     borderopacity="1.0"
     inkscape:pageopacity="0.0"
     inkscape:pageshadow="2"
     inkscape:zoom="0.35"
     inkscape:cx="375"
     inkscape:cy="520"
     inkscape:document-units="px"
     inkscape:current-layer="layer1"
     showgrid="false"
     inkscape:window-width="1229"
     inkscape:window-height="826"
     inkscape:window-x="216"
     inkscape:window-y="216"
     inkscape:window-maximized="0" />
  <metadata
     id="metadata3712">
    <rdf:RDF>
      <cc:Work
         rdf:about="">
        <dc:format>image/svg+xml</dc:format>
        <dc:type
           rdf:resource="http://purl.org/dc/dcmitype/StillImage" />
        <dc:title></dc:title>
      </cc:Work>
    </rdf:RDF>
  </metadata>
  <g
     inkscape:label="Calque 1"
     inkscape:groupmode="layer"
     id="layer1"
     transform="translate(0,-52.362183)">
    <g
       id="g3744"
       transform="matrix(59.682691,0,0,59.682691,113.5,189.13334)">
	<path
   id="path3746"
   d="M 7.747,2.756 7,3.419 V 3.468 C 7.618,4.143 8,5.067 8,6.086 8,7.106 7.618,8.029 7,8.704 V 8.753 L 7.747,9.416 C 8.523,8.552 9,7.379 9,6.086 9,4.793 8.523,3.62 7.747,2.756 z"
   inkscape:connector-curvature="0" />

	<polygon
   id="polygon3748"
   points="2,4.086 0,4.086 0,6.086 0,8.086 2,8.086 5,11.086 5,1.086 " />

	<path
   id="path3750"
   d="M 9.32,1.357 8.572,2.021 C 9.466,3.135 10,4.548 10,6.086 10,7.624 9.466,9.038 8.573,10.15 L 9.32,10.814 C 10.371,9.525 11,7.88 11,6.086 11,4.293 10.371,2.647 9.32,1.357 z"
   inkscape:connector-curvature="0" />

	<path
   id="path3752"
   d="M 10.848,0 10.096,0.668 C 11.286,2.146 12,4.031 12,6.086 c 0,2.055 -0.714,3.939 -1.904,5.418 l 0.752,0.668 C 12.191,10.516 13,8.396 13,6.086 13,3.776 12.191,1.656 10.848,0 z"
   inkscape:connector-curvature="0" />

</g>
  </g>
</svg>
